<svg width="1536" height="739" viewBox="0 0 1536 739" fill="none" xmlns="http://www.w3.org/2000/svg">
<rect width="1536" height="739" fill="#CD3F3F"/>
<rect y="93" width="231" height="92" fill="#D9D9D9"/>
<rect x="334" y="281" width="99" height="145" fill="#D9D9D9"/>
<path d="M10.248 278.68C8.5957 279.957 7.55859 280.695 7.13672 280.895C6.50391 281.188 5.83008 281.334 5.11523 281.334C4.00195 281.334 3.08203 280.953 2.35547 280.191C1.64062 279.43 1.2832 278.428 1.2832 277.186C1.2832 276.4 1.45898 275.721 1.81055 275.146C2.29102 274.35 3.12305 273.6 4.30664 272.896C5.50195 272.193 7.48242 271.338 10.248 270.33V269.697C10.248 268.092 9.99023 266.99 9.47461 266.393C8.9707 265.795 8.23242 265.496 7.25977 265.496C6.52148 265.496 5.93555 265.695 5.50195 266.094C5.05664 266.492 4.83398 266.949 4.83398 267.465L4.86914 268.484C4.86914 269.023 4.72852 269.439 4.44727 269.732C4.17773 270.025 3.82031 270.172 3.375 270.172C2.94141 270.172 2.58398 270.02 2.30273 269.715C2.0332 269.41 1.89844 268.994 1.89844 268.467C1.89844 267.459 2.41406 266.533 3.44531 265.689C4.47656 264.846 5.92383 264.424 7.78711 264.424C9.2168 264.424 10.3887 264.664 11.3027 265.145C11.9941 265.508 12.5039 266.076 12.832 266.85C13.043 267.354 13.1484 268.385 13.1484 269.943V275.41C13.1484 276.945 13.1777 277.889 13.2363 278.24C13.2949 278.58 13.3887 278.809 13.5176 278.926C13.6582 279.043 13.8164 279.102 13.9922 279.102C14.1797 279.102 14.3438 279.061 14.4844 278.979C14.7305 278.826 15.2051 278.398 15.9082 277.695V278.68C14.5957 280.438 13.3418 281.316 12.1465 281.316C11.5723 281.316 11.1152 281.117 10.7754 280.719C10.4355 280.32 10.2598 279.641 10.248 278.68ZM10.248 277.537V271.402C8.47852 272.105 7.33594 272.604 6.82031 272.896C5.89453 273.412 5.23242 273.951 4.83398 274.514C4.43555 275.076 4.23633 275.691 4.23633 276.359C4.23633 277.203 4.48828 277.906 4.99219 278.469C5.49609 279.02 6.07617 279.295 6.73242 279.295C7.62305 279.295 8.79492 278.709 10.248 277.537ZM27.5273 264.424V269.908H26.9473C26.502 268.186 25.9277 267.014 25.2246 266.393C24.5332 265.771 23.6484 265.461 22.5703 265.461C21.75 265.461 21.0879 265.678 20.584 266.111C20.0801 266.545 19.8281 267.025 19.8281 267.553C19.8281 268.209 20.0156 268.771 20.3906 269.24C20.7539 269.721 21.4922 270.23 22.6055 270.77L25.1719 272.018C27.5508 273.178 28.7402 274.707 28.7402 276.605C28.7402 278.07 28.1836 279.254 27.0703 280.156C25.9688 281.047 24.7324 281.492 23.3613 281.492C22.377 281.492 21.252 281.316 19.9863 280.965C19.5996 280.848 19.2832 280.789 19.0371 280.789C18.7676 280.789 18.5566 280.941 18.4043 281.246H17.8242V275.498H18.4043C18.7324 277.139 19.3594 278.375 20.2852 279.207C21.2109 280.039 22.248 280.455 23.3965 280.455C24.2051 280.455 24.8613 280.221 25.3652 279.752C25.8809 279.271 26.1387 278.697 26.1387 278.029C26.1387 277.221 25.8516 276.541 25.2773 275.99C24.7148 275.439 23.584 274.742 21.8848 273.898C20.1855 273.055 19.0723 272.293 18.5449 271.613C18.0176 270.945 17.7539 270.102 17.7539 269.082C17.7539 267.758 18.2051 266.65 19.1074 265.76C20.0215 264.869 21.1992 264.424 22.6406 264.424C23.2734 264.424 24.041 264.559 24.9434 264.828C25.541 265.004 25.9395 265.092 26.1387 265.092C26.3262 265.092 26.4727 265.051 26.5781 264.969C26.6836 264.887 26.8066 264.705 26.9473 264.424H27.5273ZM42.5215 279.189C41.7363 280.01 40.9688 280.602 40.2188 280.965C39.4688 281.316 38.6602 281.492 37.793 281.492C36.0352 281.492 34.5 280.76 33.1875 279.295C31.875 277.818 31.2188 275.926 31.2188 273.617C31.2188 271.309 31.9453 269.199 33.3984 267.289C34.8516 265.367 36.7207 264.406 39.0059 264.406C40.4238 264.406 41.5957 264.857 42.5215 265.76V262.789C42.5215 260.949 42.4746 259.818 42.3809 259.396C42.2988 258.975 42.1641 258.688 41.9766 258.535C41.7891 258.383 41.5547 258.307 41.2734 258.307C40.9688 258.307 40.5645 258.4 40.0605 258.588L39.832 257.973L44.6309 256.004H45.4219V274.619C45.4219 276.506 45.4629 277.66 45.5449 278.082C45.6387 278.492 45.7793 278.779 45.9668 278.943C46.166 279.107 46.3945 279.189 46.6523 279.189C46.9688 279.189 47.3906 279.09 47.918 278.891L48.1113 279.506L43.3301 281.492H42.5215V279.189ZM42.5215 277.959V269.662C42.4512 268.865 42.2402 268.139 41.8887 267.482C41.5371 266.826 41.0684 266.334 40.4824 266.006C39.9082 265.666 39.3457 265.496 38.7949 265.496C37.7637 265.496 36.8438 265.959 36.0352 266.885C34.9688 268.104 34.4355 269.885 34.4355 272.229C34.4355 274.596 34.9512 276.412 35.9824 277.678C37.0137 278.932 38.1621 279.559 39.4277 279.559C40.4941 279.559 41.5254 279.025 42.5215 277.959ZM59.5547 264.424V269.908H58.9746C58.5293 268.186 57.9551 267.014 57.252 266.393C56.5605 265.771 55.6758 265.461 54.5977 265.461C53.7773 265.461 53.1152 265.678 52.6113 266.111C52.1074 266.545 51.8555 267.025 51.8555 267.553C51.8555 268.209 52.043 268.771 52.418 269.24C52.7812 269.721 53.5195 270.23 54.6328 270.77L57.1992 272.018C59.5781 273.178 60.7676 274.707 60.7676 276.605C60.7676 278.07 60.2109 279.254 59.0977 280.156C57.9961 281.047 56.7598 281.492 55.3887 281.492C54.4043 281.492 53.2793 281.316 52.0137 280.965C51.627 280.848 51.3105 280.789 51.0645 280.789C50.7949 280.789 50.584 280.941 50.4316 281.246H49.8516V275.498H50.4316C50.7598 277.139 51.3867 278.375 52.3125 279.207C53.2383 280.039 54.2754 280.455 55.4238 280.455C56.2324 280.455 56.8887 280.221 57.3926 279.752C57.9082 279.271 58.166 278.697 58.166 278.029C58.166 277.221 57.8789 276.541 57.3047 275.99C56.7422 275.439 55.6113 274.742 53.9121 273.898C52.2129 273.055 51.0996 272.293 50.5723 271.613C50.0449 270.945 49.7812 270.102 49.7812 269.082C49.7812 267.758 50.2324 266.65 51.1348 265.76C52.0488 264.869 53.2266 264.424 54.668 264.424C55.3008 264.424 56.0684 264.559 56.9707 264.828C57.5684 265.004 57.9668 265.092 58.166 265.092C58.3535 265.092 58.5 265.051 58.6055 264.969C58.7109 264.887 58.834 264.705 58.9746 264.424H59.5547ZM72.2988 278.68C70.6465 279.957 69.6094 280.695 69.1875 280.895C68.5547 281.188 67.8809 281.334 67.166 281.334C66.0527 281.334 65.1328 280.953 64.4062 280.191C63.6914 279.43 63.334 278.428 63.334 277.186C63.334 276.4 63.5098 275.721 63.8613 275.146C64.3418 274.35 65.1738 273.6 66.3574 272.896C67.5527 272.193 69.5332 271.338 72.2988 270.33V269.697C72.2988 268.092 72.041 266.99 71.5254 266.393C71.0215 265.795 70.2832 265.496 69.3105 265.496C68.5723 265.496 67.9863 265.695 67.5527 266.094C67.1074 266.492 66.8848 266.949 66.8848 267.465L66.9199 268.484C66.9199 269.023 66.7793 269.439 66.498 269.732C66.2285 270.025 65.8711 270.172 65.4258 270.172C64.9922 270.172 64.6348 270.02 64.3535 269.715C64.084 269.41 63.9492 268.994 63.9492 268.467C63.9492 267.459 64.4648 266.533 65.4961 265.689C66.5273 264.846 67.9746 264.424 69.8379 264.424C71.2676 264.424 72.4395 264.664 73.3535 265.145C74.0449 265.508 74.5547 266.076 74.8828 266.85C75.0938 267.354 75.1992 268.385 75.1992 269.943V275.41C75.1992 276.945 75.2285 277.889 75.2871 278.24C75.3457 278.58 75.4395 278.809 75.5684 278.926C75.709 279.043 75.8672 279.102 76.043 279.102C76.2305 279.102 76.3945 279.061 76.5352 278.979C76.7812 278.826 77.2559 278.398 77.959 277.695V278.68C76.6465 280.438 75.3926 281.316 74.1973 281.316C73.623 281.316 73.166 281.117 72.8262 280.719C72.4863 280.32 72.3105 279.641 72.2988 278.68ZM72.2988 277.537V271.402C70.5293 272.105 69.3867 272.604 68.8711 272.896C67.9453 273.412 67.2832 273.951 66.8848 274.514C66.4863 275.076 66.2871 275.691 66.2871 276.359C66.2871 277.203 66.5391 277.906 67.043 278.469C67.5469 279.02 68.127 279.295 68.7832 279.295C69.6738 279.295 70.8457 278.709 72.2988 277.537ZM90.5449 279.189C89.7598 280.01 88.9922 280.602 88.2422 280.965C87.4922 281.316 86.6836 281.492 85.8164 281.492C84.0586 281.492 82.5234 280.76 81.2109 279.295C79.8984 277.818 79.2422 275.926 79.2422 273.617C79.2422 271.309 79.9688 269.199 81.4219 267.289C82.875 265.367 84.7441 264.406 87.0293 264.406C88.4473 264.406 89.6191 264.857 90.5449 265.76V262.789C90.5449 260.949 90.498 259.818 90.4043 259.396C90.3223 258.975 90.1875 258.688 90 258.535C89.8125 258.383 89.5781 258.307 89.2969 258.307C88.9922 258.307 88.5879 258.4 88.084 258.588L87.8555 257.973L92.6543 256.004H93.4453V274.619C93.4453 276.506 93.4863 277.66 93.5684 278.082C93.6621 278.492 93.8027 278.779 93.9902 278.943C94.1895 279.107 94.418 279.189 94.6758 279.189C94.9922 279.189 95.4141 279.09 95.9414 278.891L96.1348 279.506L91.3535 281.492H90.5449V279.189ZM90.5449 277.959V269.662C90.4746 268.865 90.2637 268.139 89.9121 267.482C89.5605 266.826 89.0918 266.334 88.5059 266.006C87.9316 265.666 87.3691 265.496 86.8184 265.496C85.7871 265.496 84.8672 265.959 84.0586 266.885C82.9922 268.104 82.459 269.885 82.459 272.229C82.459 274.596 82.9746 276.412 84.0059 277.678C85.0371 278.932 86.1855 279.559 87.4512 279.559C88.5176 279.559 89.5488 279.025 90.5449 277.959Z" fill="white"/>
<rect x="679" y="214" width="255" height="161" fill="#D9D9D9"/>
<rect x="953" y="107" width="196" height="137" fill="#D9D9D9"/>
<rect x="775" y="515" width="276" height="32" fill="#D9D9D9"/>
<rect y="411" width="242" height="172" fill="#D9D9D9"/>
</svg>
